<svg width="1200" height="630" viewBox="0 0 1200 630" fill="none" xmlns="http://www.w3.org/2000/svg">
  <rect width="1200" height="630" rx="36" fill="#1E1A17"/>
  <circle cx="930" cy="140" r="180" fill="#A55A2A" fill-opacity="0.22"/>
  <circle cx="220" cy="540" r="210" fill="#F3D2B6" fill-opacity="0.12"/>
  <rect x="74" y="78" width="170" height="170" rx="85" fill="#A55A2A"/>
  <path d="M151.65 143.2H181.25L210.25 181.2H244.25C252.95 181.2 260.05 188.3 260.05 197C260.05 205.7 252.95 212.8 244.25 212.8H236.55C232.95 227.4 220.35 238 205.05 238C189.75 238 177.15 227.4 173.55 212.8H129.45C125.85 227.4 113.25 238 97.95 238C79.95 238 65.25 223.3 65.25 205.3C65.25 187.3 79.95 172.6 97.95 172.6H119.95L151.65 143.2ZM205.05 221.6C213.95 221.6 221.15 214.4 221.15 205.5C221.15 196.6 213.95 189.4 205.05 189.4C196.15 189.4 188.95 196.6 188.95 205.5C188.95 214.4 196.15 221.6 205.05 221.6ZM97.95 221.6C106.85 221.6 114.05 214.4 114.05 205.5C114.05 196.6 106.85 189.4 97.95 189.4C89.05 189.4 81.85 196.6 81.85 205.5C81.85 214.4 89.05 221.6 97.95 221.6Z" fill="#FFF8F2"/>
  <text x="74" y="334" fill="#E8DED2" font-family="Arial, sans-serif" font-size="26" letter-spacing="5">NAIROBI CAR DEALERSHIP</text>
  <text x="74" y="420" fill="#FFF8F2" font-family="Georgia, serif" font-size="74" font-weight="700">Ocean Motors</text>
  <text x="74" y="492" fill="#D5C6B8" font-family="Arial, sans-serif" font-size="30">Used, imported, and traded-in vehicles with stronger trust and faster enquiries.</text>
</svg>
